<svg width="114" height="27" viewBox="0 0 114 27" fill="none" xmlns="http://www.w3.org/2000/svg">
<path fill-rule="evenodd" clip-rule="evenodd" d="M2.79122 9.45184H4.63456C5.64364 9.45184 7.46435 9.54315 8.60532 9.65631C8.54629 9.2035 8.54629 8.74495 8.60532 8.29214C7.42065 8.38267 5.64364 8.42872 4.63456 8.42872H2.79122V5.29066C2.79122 4.81305 2.81308 2.97127 2.85678 2.42576H3.40541C5.97219 2.42576 7.83739 2.5397 9.02205 2.78943C8.99393 2.53258 8.97934 2.27443 8.97835 2.01604C8.97835 1.76631 9.0002 1.3566 9.02205 1.19739C7.35431 1.26529 5.11686 1.31133 3.86664 1.31133C2.61641 1.31133 1.67211 1.26529 0.794922 1.19739C0.90496 2.42499 0.948665 6.04065 0.948665 9.33868C0.948665 12.6367 0.90496 16.3429 0.794922 17.6844H5.0076C6.34601 17.6844 8.27598 17.7102 9.0002 17.7789C9.0002 17.6384 8.97835 17.2521 8.97835 17.0242C8.97835 16.7745 9.0002 16.4327 9.0002 16.2969C6.9602 16.4779 4.56823 16.57 3.40619 16.57H2.92311C2.85756 15.3416 2.79122 12.1583 2.79122 10.6349V9.45184ZM11.8526 17.6844C12.0653 17.6175 12.2877 17.5866 12.5105 17.5931C12.7524 17.5931 12.9936 17.6158 13.2566 17.6844C13.1255 13.4999 13.1028 10.2705 13.1028 8.1103C13.1028 7.58742 13.1466 5.40461 13.1684 4.97226L18.8069 11.1118C21.2426 13.7722 23.2389 16.0463 24.7529 18.006H25.0604C25.0385 17.2973 25.0159 14.1593 25.0159 12.5446C25.0159 9.11079 25.0377 5.33593 25.1696 1.19739C24.9484 1.26077 24.7192 1.29127 24.4891 1.28792C24.248 1.28792 24.006 1.26529 23.7649 1.19739C23.8523 3.38021 23.9186 6.81404 23.9186 11.4762C23.9186 12.067 23.8968 12.7717 23.8749 13.5912C20.4302 9.99813 16.5468 5.83617 12.4442 0.901611H12.0056V3.47074C12.0056 8.42871 11.94 16.6153 11.8526 17.6844ZM40.8786 16.6605L41.0097 15.0685C39.4083 16.4108 37.6305 17.0929 35.9417 17.0929C32.2776 17.0929 29.952 14.2732 29.952 9.49788C29.952 4.58595 32.2558 1.81158 36.0954 1.81158C38.2236 1.81158 39.6939 2.6076 40.8123 4.3807C40.8123 3.60731 40.9434 2.85733 41.1853 2.08394C39.6931 1.31055 37.9825 0.901611 36.1828 0.901611C30.8737 0.901611 27.539 4.31281 27.539 9.47447C27.539 14.8874 30.5006 18.006 35.6568 18.006C37.9825 18.006 39.7376 17.5252 40.8786 16.6605ZM46.8901 17.6844C47.2522 17.6199 47.6196 17.5893 47.9874 17.5931C48.3378 17.5931 48.6671 17.6158 49.0175 17.6844C48.9303 16.1546 48.8865 14.6225 48.8864 13.0901C48.8864 12.2262 48.9075 11.2257 48.952 10.5663C50.6334 7.3983 52.3965 4.2743 54.2393 1.19739C53.9326 1.26529 53.6696 1.28792 53.3613 1.28792C53.0991 1.28792 52.8127 1.26529 52.506 1.19739C51.2847 4.01985 49.8852 6.76177 48.3159 9.40657C46.6256 6.7914 45.156 4.0623 43.9487 1.19739C43.5351 1.26132 43.117 1.29159 42.6985 1.28792C42.2599 1.28792 41.7761 1.26529 41.4264 1.19739C43.2034 4.29018 45.046 7.5648 46.933 10.9526C46.9986 12.0217 47.0431 13.1354 47.0431 14.2498C47.0439 15.3869 46.9557 16.524 46.8901 17.6844ZM55.9078 17.6844C56.1271 17.6158 56.3027 17.5931 56.5665 17.5931C56.8076 17.5931 57.048 17.6158 57.3118 17.6844C57.1807 13.4999 57.158 10.2705 57.158 8.1103C57.158 7.58742 57.2025 5.40461 57.2252 4.97226L62.8637 11.1118C65.2993 13.7722 67.2949 16.0463 68.8096 18.006H69.1163C69.0953 17.2973 69.0719 14.1593 69.0719 12.5446C69.0719 9.11079 69.0945 5.33593 69.2256 1.19739C69.0047 1.26077 68.7757 1.29127 68.5459 1.28792C68.3032 1.28792 68.0628 1.26529 67.8216 1.19739C67.9083 3.38021 67.9754 6.81404 67.9754 11.4762C67.9754 12.067 67.9527 12.7717 67.9309 13.5912C64.4861 9.99813 60.602 5.83617 56.5009 0.901611H56.0623V3.47074C56.0616 8.42871 55.996 16.6153 55.9078 17.6844ZM80.1951 18.006C85.3513 18.006 88.7524 14.569 88.7524 9.47447C88.7524 4.24413 85.5043 0.901611 80.1951 0.901611C75.0171 0.901611 71.6168 4.26676 71.6168 9.47447C71.616 14.7282 74.8633 18.006 80.1951 18.006ZM80.1951 17.0929C76.1799 17.0929 73.9198 14.4098 73.9198 9.54315C73.9198 4.58517 76.2244 1.81158 80.1951 1.81158C84.2759 1.81158 86.4478 4.47201 86.4478 9.45262C86.447 14.3864 84.1659 17.0929 80.1951 17.0929ZM94.5212 17.6844C94.785 17.6158 95.0253 17.5931 95.2891 17.5931C95.5529 17.5931 95.7933 17.6158 96.057 17.6844C98.101 12.1595 100.222 6.66326 102.419 1.19739C102.221 1.26529 101.915 1.28792 101.651 1.28792C101.41 1.28792 101.125 1.26529 100.883 1.19739C99.2976 5.95196 97.5787 10.661 95.7285 15.319C93.8683 10.6515 92.1125 5.94316 90.4622 1.19739C90.2 1.24266 89.6959 1.28792 89.3221 1.28792C88.9482 1.28792 88.5541 1.26529 88.2029 1.19739C90.2656 6.29116 92.3493 11.8165 94.5212 17.6844ZM99.4768 17.6844C99.6782 17.6384 100.007 17.5931 100.248 17.5931C100.512 17.5931 100.796 17.6158 101.016 17.6844C101.761 15.4782 102.529 13.3406 103.429 11.2484C104.197 11.2257 105.337 11.2031 106.304 11.2031C107.51 11.2031 108.871 11.2257 109.156 11.2484L109.55 12.2036C110.384 14.2046 111.02 16.0463 111.548 17.6844C111.942 17.6158 112.337 17.5931 112.732 17.5931C113.127 17.5931 113.5 17.6158 113.874 17.6844C111.536 12.1249 109.283 6.52998 107.116 0.901611H106.677C104.356 6.52954 101.956 12.1244 99.4768 17.6844ZM106.304 4.19887C107.489 7.06377 108.146 8.72371 108.301 9.13343L108.696 10.1339C108.234 10.1566 106.391 10.18 105.58 10.18C104.768 10.18 104.198 10.1573 103.825 10.1339L106.304 4.19887ZM1.7322 21.1066C1.4768 21.1473 1.21655 21.1473 0.961151 21.1066C1.00095 21.5709 1.01656 22.7993 1.01656 23.9402C1.01656 25.082 1.00095 26.3494 0.961151 26.8137C1.04778 26.7981 1.22103 26.7825 1.34668 26.7825C1.48091 26.7825 1.64635 26.7989 1.7322 26.8137C1.69318 26.3494 1.67757 25.082 1.67757 23.9402C1.67757 22.7985 1.69318 21.5701 1.7322 21.1066ZM7.58843 26.8129C7.6651 26.7901 7.74492 26.7795 7.8249 26.7817C7.91153 26.7817 7.99815 26.7895 8.09258 26.8129C8.04498 25.3653 8.03795 24.2469 8.03795 23.4993C8.03795 23.3182 8.05356 22.5628 8.06137 22.4122L10.0842 24.538C10.9583 25.4597 11.6747 26.2464 12.2179 26.9253H12.3279C12.3201 26.6803 12.3123 25.5939 12.3123 25.0344C12.3123 23.8458 12.3201 22.5394 12.3677 21.1066C12.2882 21.1284 12.2059 21.1389 12.1234 21.1378C12.0368 21.1378 11.9502 21.13 11.8635 21.1066C11.8955 21.8628 11.919 23.0506 11.919 24.6652C11.919 24.8697 11.9112 25.114 11.9026 25.3973C10.6672 24.1533 9.27335 22.7134 7.80149 21.0051H7.64384V21.8948C7.64306 23.6101 7.61965 26.443 7.58843 26.8129ZM19.9229 21.4991H20.2218C20.7884 21.4991 21.2769 21.5225 21.6937 21.6021C21.6623 21.4384 21.6623 21.2702 21.6937 21.1066C21.4104 21.1229 20.2608 21.1378 19.5834 21.1378C18.9536 21.1378 17.9859 21.13 17.4818 21.1066C17.4896 21.1612 17.4974 21.2876 17.4974 21.3664C17.4974 21.4211 17.4896 21.5467 17.4818 21.6029C17.8361 21.5397 18.3558 21.4999 19.0168 21.4999H19.2611V23.98C19.2611 25.1218 19.2447 26.3494 19.2057 26.8137C19.2923 26.7981 19.4656 26.7825 19.5912 26.7825C19.7247 26.7825 19.8901 26.7989 19.9775 26.8137C19.9377 26.3494 19.9221 25.1218 19.9221 23.98V21.4991H19.9229ZM27.6443 23.9637H28.3053C28.6674 23.9637 29.3206 23.9957 29.7304 24.0347C29.7105 23.8779 29.7105 23.7193 29.7304 23.5625C29.3058 23.5937 28.6682 23.6101 28.3053 23.6101H27.6443V22.523C27.6443 22.3576 27.6521 21.7207 27.6677 21.5311H27.8644C28.7861 21.5311 29.4549 21.5701 29.8802 21.6567C29.8597 21.4737 29.8597 21.2889 29.8802 21.1058C29.2816 21.1292 28.4794 21.1456 28.0298 21.1456C27.5811 21.1456 27.2424 21.1292 26.9279 21.1058C26.9677 21.5311 26.9833 22.7821 26.9833 23.9238C26.9833 25.0648 26.9677 26.3478 26.9279 26.8122H28.4396C28.9195 26.8122 29.6125 26.8215 29.8724 26.8457C29.8724 26.7973 29.8646 26.6631 29.8646 26.5843C29.8646 26.4977 29.8724 26.379 29.8724 26.3322C29.1404 26.3954 28.2819 26.4266 27.8652 26.4266H27.6919C27.6632 25.7421 27.6473 25.057 27.6443 24.3718V23.9637ZM36.09 24.0339C36.1532 24.0261 36.2 24.0183 36.2476 24.0183C36.4053 24.0183 36.4919 24.0807 36.5863 24.2071L37.4916 25.3715C37.8303 25.8047 38.1604 26.2768 38.5311 26.8122C38.6411 26.7966 38.8698 26.781 39.0189 26.781C39.1609 26.781 39.3576 26.7888 39.5066 26.8122C38.9166 26.0645 37.9091 24.8369 37.2871 24.0019C38.3735 23.8052 38.9556 23.2379 38.9556 22.4582C38.9556 21.5537 38.3259 21.105 37.0741 21.105C36.5465 21.105 36.0978 21.1362 35.7435 21.1362C35.649 21.1362 35.4992 21.1206 35.3735 21.105C35.4126 21.5693 35.4282 22.7977 35.4282 23.9387C35.4282 25.0804 35.4126 26.3478 35.3735 26.8122C35.4602 26.7966 35.6334 26.781 35.7591 26.781C35.8933 26.781 36.058 26.7973 36.1446 26.8122C36.1056 26.3556 36.09 25.9389 36.09 25.5604V24.0339ZM36.09 23.7748V22.3099C36.09 22.0587 36.0978 21.7512 36.1446 21.4445C36.4123 21.4289 36.6324 21.4211 36.79 21.4211C37.7507 21.4211 38.2306 21.8066 38.2306 22.5628C38.2306 23.3893 37.6087 23.7904 36.3647 23.7904C36.2729 23.7897 36.1812 23.7845 36.09 23.7748ZM44.5746 26.8129C44.6513 26.7901 44.7311 26.7796 44.8111 26.7817C44.8977 26.7817 44.9851 26.7895 45.0796 26.8129C45.032 25.3653 45.0249 24.2469 45.0249 23.4993C45.0249 23.3182 45.0405 22.5628 45.0476 22.4122L47.072 24.538C47.9452 25.4597 48.6617 26.2464 49.2041 26.9253H49.3141C49.3063 26.6803 49.2985 25.5939 49.2985 25.0344C49.2985 23.8458 49.3063 22.5394 49.3531 21.1066C49.2751 21.13 49.1884 21.1378 49.1096 21.1378C49.023 21.1378 48.9372 21.13 48.8505 21.1066C48.881 21.8628 48.9052 23.0506 48.9052 24.6652C48.9052 24.8697 48.8974 25.114 48.8895 25.3973C47.6534 24.1533 46.2603 22.7134 44.7877 21.0051H44.6308V21.8948C44.6308 23.6101 44.6066 26.443 44.5746 26.8129ZM54.2627 26.8129C54.3361 26.7973 54.4531 26.7817 54.5398 26.7817C54.6342 26.7817 54.7364 26.7895 54.816 26.8129C55.0733 26.0587 55.362 25.3157 55.6815 24.5856C55.9578 24.5778 56.3659 24.57 56.7132 24.57C57.1463 24.57 57.6341 24.5778 57.7363 24.5856L57.8784 24.9165C58.1773 25.6095 58.4059 26.2471 58.5948 26.8137C58.7368 26.7903 58.8781 26.7825 59.0201 26.7825C59.1621 26.7825 59.2948 26.7903 59.4283 26.8137C58.5903 24.8903 57.7825 22.9538 57.0051 21.0051H56.8467C56.014 22.9537 55.1526 24.8899 54.2627 26.8129ZM56.714 22.1453C57.1377 23.1372 57.3742 23.7124 57.4288 23.8536L57.5709 24.1993C57.4062 24.2079 56.7444 24.2157 56.4533 24.2157C56.1622 24.2157 55.9578 24.2079 55.8235 24.1993L56.714 22.1453ZM66.3545 21.4991H66.6549C67.2223 21.4991 67.71 21.5225 68.126 21.6021C68.0946 21.4384 68.0946 21.2703 68.126 21.1066C67.423 21.1283 66.7198 21.1387 66.0165 21.1378C65.3867 21.1378 64.419 21.13 63.9149 21.1066C63.9242 21.1612 63.9313 21.2876 63.9313 21.3664C63.9313 21.4211 63.9235 21.5467 63.9149 21.6029C64.27 21.5397 64.7897 21.4999 65.4515 21.4999H65.695V23.98C65.695 25.1218 65.6786 26.3494 65.6388 26.8137C65.7254 26.7981 65.8995 26.7825 66.0259 26.7825C66.1586 26.7825 66.3248 26.7989 66.4114 26.8137C66.3716 26.3494 66.3552 25.1218 66.3552 23.98V21.4991H66.3545ZM74.1235 21.1066C73.8681 21.1472 73.6078 21.1472 73.3524 21.1066C73.3922 21.5709 73.4071 22.7993 73.4071 23.9402C73.4071 25.082 73.3915 26.3494 73.3524 26.8137C73.4391 26.7981 73.6131 26.7825 73.738 26.7825C73.8722 26.7825 74.0368 26.7989 74.1235 26.8137C74.0837 26.3494 74.0689 25.082 74.0689 23.9402C74.0689 22.7985 74.0845 21.5701 74.1235 21.1066ZM82.6714 26.9253C84.5217 26.9253 85.7415 25.736 85.7415 23.9722C85.7415 22.1617 84.5771 21.0043 82.6714 21.0043C80.8148 21.0043 79.5942 22.1687 79.5942 23.9722C79.5942 25.7898 80.7586 26.9253 82.6714 26.9253ZM82.6714 26.6085C81.2307 26.6085 80.4199 25.6798 80.4199 23.9949C80.4199 22.2787 81.2479 21.318 82.6714 21.318C84.1362 21.318 84.9151 22.2389 84.9151 23.9629C84.9151 25.672 84.0972 26.6085 82.6714 26.6085ZM91.0554 26.8129C91.132 26.7901 91.2119 26.7796 91.2918 26.7817C91.3785 26.7817 91.4643 26.7895 91.5587 26.8129C91.5111 25.3653 91.5041 24.2469 91.5041 23.4993C91.5041 23.3182 91.5205 22.5628 91.5283 22.4122L93.5511 24.538C94.4244 25.4597 95.1408 26.2464 95.6848 26.9253H95.7948C95.787 26.6803 95.7792 25.5939 95.7792 25.0344C95.7792 23.8458 95.787 22.5394 95.8338 21.1066C95.7542 21.13 95.6676 21.1378 95.5903 21.1378C95.5037 21.1378 95.4163 21.13 95.3297 21.1066C95.3617 21.8628 95.3843 23.0506 95.3843 24.6652C95.3843 24.8697 95.3765 25.114 95.3687 25.3973C94.1325 24.1533 92.7395 22.7134 91.2669 21.0051H91.11V21.8948C91.11 23.6101 91.0874 26.443 91.0554 26.8129ZM100.743 26.8129C100.815 26.7973 100.934 26.7817 101.02 26.7817C101.115 26.7817 101.217 26.7895 101.295 26.8129C101.564 26.0489 101.839 25.3099 102.161 24.5856C102.437 24.5778 102.847 24.57 103.192 24.57C103.626 24.57 104.113 24.5778 104.215 24.5856L104.358 24.9165C104.658 25.6095 104.885 26.2471 105.074 26.8137C105.216 26.7903 105.357 26.7825 105.499 26.7825C105.641 26.7825 105.776 26.7903 105.909 26.8137C105.071 24.8903 104.262 22.9538 103.484 21.0051H103.327C102.494 22.9533 101.632 24.8894 100.743 26.8129ZM103.192 22.1453C103.618 23.1372 103.854 23.7124 103.909 23.8536L104.051 24.1993C103.885 24.2079 103.224 24.2157 102.933 24.2157C102.641 24.2157 102.436 24.2079 102.302 24.1993L103.192 22.1453ZM111.725 21.1066C111.47 21.1472 111.21 21.1472 110.954 21.1066C110.993 21.5709 111.009 22.7993 111.009 23.9402C111.009 25.082 110.993 26.3494 110.954 26.8137C111.261 26.7903 111.671 26.7825 112.064 26.7825C112.371 26.7825 113.017 26.7989 114 26.8137C113.98 26.6413 113.98 26.4672 114 26.2948C113.591 26.3806 113.032 26.4282 112.3 26.4282C112.087 26.4282 111.78 26.4204 111.732 26.4126C111.695 25.589 111.674 24.7647 111.67 23.9402C111.671 22.7985 111.686 21.5701 111.725 21.1066Z" fill="#067164"/>
</svg>
