<svg width="59" height="53" viewBox="0 0 59 53" fill="none" xmlns="http://www.w3.org/2000/svg">
<path fill-rule="evenodd" clip-rule="evenodd" d="M40 27C40 27.3409 39.8617 27.6679 39.6156 27.909C39.3695 28.15 39.0357 28.2855 38.6876 28.2855H23.4827L29.118 33.8028C29.24 33.9223 29.3368 34.0642 29.4028 34.2203C29.4688 34.3765 29.5028 34.5439 29.5028 34.7129C29.5028 34.8819 29.4688 35.0493 29.4028 35.2054C29.3368 35.3616 29.24 35.5035 29.118 35.623C28.9959 35.7425 28.8511 35.8373 28.6917 35.902C28.5322 35.9667 28.3614 36 28.1888 36C28.0163 36 27.8454 35.9667 27.686 35.902C27.5265 35.8373 27.3817 35.7425 27.2597 35.623L19.3856 27.9101C19.2633 27.7907 19.1664 27.6489 19.1002 27.4927C19.0341 27.3365 19 27.1691 19 27C19 26.8309 19.0341 26.6635 19.1002 26.5073C19.1664 26.3511 19.2633 26.2093 19.3856 26.0899L27.2597 18.377C27.5061 18.1356 27.8403 18 28.1888 18C28.5373 18 28.8715 18.1356 29.118 18.377C29.3644 18.6184 29.5028 18.9457 29.5028 19.2871C29.5028 19.6285 29.3644 19.9558 29.118 20.1972L23.4827 25.7145H38.6876C39.0357 25.7145 39.3695 25.85 39.6156 26.091C39.8617 26.3321 40 26.6591 40 27Z" fill="#067164" fill-opacity="0.5"/>
</svg>
