<svg width="59" height="53" viewBox="0 0 59 53" fill="none" xmlns="http://www.w3.org/2000/svg">
<rect x="0.802734" width="58.0866" height="53" rx="1" fill="#067164"/>
<path fill-rule="evenodd" clip-rule="evenodd" d="M20 27C20 27.3409 20.1383 27.6679 20.3844 27.909C20.6305 28.15 20.9643 28.2855 21.3124 28.2855H36.5173L30.882 33.8028C30.76 33.9223 30.6632 34.0642 30.5972 34.2203C30.5312 34.3765 30.4972 34.5439 30.4972 34.7129C30.4972 34.8819 30.5312 35.0493 30.5972 35.2054C30.6632 35.3616 30.76 35.5035 30.882 35.623C31.0041 35.7425 31.1489 35.8373 31.3083 35.902C31.4678 35.9667 31.6386 36 31.8112 36C31.9837 36 32.1546 35.9667 32.314 35.902C32.4735 35.8373 32.6183 35.7425 32.7403 35.623L40.6144 27.9101C40.7367 27.7907 40.8336 27.6489 40.8998 27.4927C40.9659 27.3365 41 27.1691 41 27C41 26.8309 40.9659 26.6635 40.8998 26.5073C40.8336 26.3511 40.7367 26.2093 40.6144 26.0899L32.7403 18.377C32.4939 18.1356 32.1597 18 31.8112 18C31.4627 18 31.1285 18.1356 30.882 18.377C30.6356 18.6184 30.4972 18.9457 30.4972 19.2871C30.4972 19.6285 30.6356 19.9558 30.882 20.1972L36.5173 25.7145H21.3124C20.9643 25.7145 20.6305 25.85 20.3844 26.091C20.1383 26.3321 20 26.6591 20 27Z" fill="white"/>
</svg>
