<svg width="18" height="18" viewBox="0 0 18 18" fill="none" xmlns="http://www.w3.org/2000/svg">
<path d="M17.6098 13.7314C17.0479 13.2602 13.7526 11.1735 13.2049 11.2693C12.9478 11.3149 12.7511 11.5341 12.2246 12.1622C11.9811 12.4714 11.7137 12.7609 11.4249 13.0281C10.8956 12.9003 10.3834 12.7104 9.89872 12.4624C7.99797 11.537 6.46241 10.001 5.53757 8.1C5.28958 7.61533 5.09969 7.10307 4.97186 6.57386C5.23911 6.28502 5.52865 6.01763 5.83779 5.77414C6.46521 5.24764 6.68507 5.05221 6.73071 4.79379C6.8265 4.24479 4.73786 0.950786 4.26857 0.388929C4.07186 0.156214 3.89314 0 3.66429 0C3.00086 0 0 3.71057 0 4.19143C0 4.23064 0.0642857 8.09357 4.94293 13.0571C9.90643 17.9357 13.7694 18 13.8086 18C14.2894 18 18 14.9991 18 14.3357C18 14.1069 17.8438 13.9281 17.6098 13.7314Z" fill="white"/>
</svg>
